<?xml version="1.0" standalone="no"?>
<!DOCTYPE svg PUBLIC "-//W3C//DTD SVG 20010904//EN"
 "http://www.w3.org/TR/2001/REC-SVG-20010904/DTD/svg10.dtd">
<svg version="1.0" xmlns="http://www.w3.org/2000/svg"
 width="512.000000pt" height="512.000000pt" viewBox="0 0 512.000000 512.000000"
 preserveAspectRatio="xMidYMid meet">
<metadata>
Created by potrace 1.14, written by Peter Selinger 2001-2017
</metadata>
<g transform="translate(0.000000,512.000000) scale(0.100000,-0.100000)"
fill="#000000" stroke="none">
<path d="M405 5108 c-160 -30 -314 -166 -377 -334 l-23 -59 0 -2155 0 -2155
23 -59 c64 -169 213 -300 380 -335 75 -16 4229 -16 4304 0 189 39 358 208 397
397 16 75 16 4229 0 4304 -35 167 -166 316 -335 380 l-59 23 -2130 1 c-1323 1
-2149 -2 -2180 -8z m1495 -1683 l0 -645 660 0 660 0 0 645 0 645 235 0 235 0
0 -1510 0 -1510 -235 0 -235 0 0 675 0 675 -660 0 -660 0 0 -675 0 -675 -235
0 -235 0 0 1510 0 1510 235 0 235 0 0 -645z"/>
</g>
</svg>
